<svg width="87" height="41" viewBox="0 0 87 41" fill="none" xmlns="http://www.w3.org/2000/svg">
<path d="M81.4712 24.4036C77.9288 15.1451 71.651 6.30309 65.2774 1.20341C63.9575 0.147343 62.6815 -0.150891 61.4166 0.0671433C58.6198 -0.462137 56.1672 2.22013 53.4318 5.21165C50.348 8.58426 46.9048 12.3499 42.2037 12.3499C40.9225 12.3499 39.7083 12.0702 38.5499 11.595C35.5895 10.3207 33.1614 7.6653 30.9226 5.21683C28.1906 2.22896 25.7404 -0.450725 22.9485 0.0637446C21.6913 -0.147647 20.4229 0.152643 19.1111 1.20222C9.44521 8.93608 0 25.2854 0 38.6272H11.552C11.7325 29.1153 16.2173 20.6567 23.1398 15.1178C23.6623 14.6997 24.198 14.4543 24.746 14.3554C26.8539 14.2932 29.2773 16.0636 31.7402 18.3899C32.5658 19.2339 33.4072 20.1514 34.2629 21.0843C36.4134 23.4292 38.6534 25.8716 40.956 27.4892C41.3712 27.8076 41.7739 28.0826 42.1619 28.3043C44.9066 26.7795 47.5709 23.8744 50.1106 21.1053C51.2146 19.9015 52.2951 18.7234 53.3483 17.6955C55.4904 15.7711 57.5814 14.3684 59.4369 14.34C60.0553 14.4116 60.6582 14.6636 61.2447 15.1328C65.6385 18.6484 69.0511 23.339 71.0064 28.7284C72.4823 25.9174 75.4297 24 78.825 24C79.7469 24 80.6358 24.1414 81.4712 24.4036Z" fill="#620AA8"/>
<path d="M86.3333 33.1667C86.3333 37.1247 83.1247 40.3333 79.1667 40.3333C75.2086 40.3333 72 37.1247 72 33.1667C72 29.2086 75.2086 26 79.1667 26C83.1247 26 86.3333 29.2086 86.3333 33.1667Z" fill="#620AA8"/>
</svg>
